:version 1.10
:name ASF
:units
  mass 1
  length 1
  angle deg
:documentation
  ASF file generated by Kaydara
:root
  axis xyz
  order  tx ty tz rx ry rz
  position 0 0 0
  orientation 0 0 0
:bonedata
  begin
    id 1
    name RightUpLegDummy
    direction -1 2.30186e-007 8.31532e-007
    length 4.46685
    axis 0 0 0 xyz
  end
  begin
    id 2
    name RightUpLeg
    direction -2.30187e-007 -1 1.24343e-010
    length 16.4045
    axis -3.49089 -0.000906625 0.000286804 xyz
    dof rx ry rz
  end
  begin
    id 3
    name RightLeg
    direction -2.30181e-007 -1 -4.17157e-009
    length 17.5097
    axis 3.68512 0.0193738 -0.131023 xyz
    dof rx ry rz
  end
  begin
    id 4
    name RightFoot
    direction 8.31421e-007 -4.51202e-011 1
    length 6.49508
    axis 4.81691e-005 -0.120479 -0.188788 xyz
    dof rx ry rz
  end
  begin
    id 5
    name RightToes
    direction 0.00124746 -0.014064 0.9999
    length 3.85082
    axis 0.000481921 0.542163 -0.142578 xyz
    dof rx ry rz
  end
  begin
    id 6
    name SpineDummy
    direction 0.0717043 0.9409 -0.331007
    length 10.0032
    axis 0 0 0 xyz
  end
  begin
    id 7
    name Spine
    direction 2.30186e-007 1 4.58806e-011
    length 9.84055
    axis -0.001389 0.000121418 2.40972e-006 xyz
    dof rx ry rz
  end
  begin
    id 8
    name Spine1
    direction 0 0 0
    length 0
    axis -0.001389 0.000121451 1.30017e-006 xyz
    dof rx ry rz
  end
  begin
    id 9
    name HEadDummy
    direction -0.00347485 0.950688 -0.310128
    length 8.00997
    axis -0.001389 0.000121451 1.30017e-006 xyz
  end
  begin
    id 10
    name HEad
    direction -0.0222688 0.980941 0.193023
    length 5.12695
    axis -0.001389 0.000121451 1.30017e-006 xyz
    dof rx ry rz
  end
  begin
    id 11
    name LeftShoulder1Dummy
    direction 0.988871 0.146793 -0.0242004
    length 3.5792
    axis -0.001389 0.000121451 1.30017e-006 xyz
  end
  begin
    id 12
    name LeftShoulder1
    direction 0.993832 0.108932 0.020779
    length 4.16823
    axis -0.001389 0.000121451 1.30017e-006 xyz
    dof rx ry rz
  end
  begin
    id 13
    name LeftArm
    direction 1 3.44807e-006 -8.31404e-007
    length 9.91437
    axis -23.1894 0.134784 0.967509 xyz
    dof rx ry rz
  end
  begin
    id 14
    name LeftForeArm
    direction 1 3.44842e-006 -8.31581e-007
    length 9.08575
    axis -9.91835 -0.06569 -0.177793 xyz
    dof rx ry rz
  end
  begin
    id 15
    name LeftHand
    direction 0.992938 -0.0411636 0.11126
    length 5.32135
    axis -0.00960232 -0.00340091 0.185173 xyz
    dof rx ry rz
  end
  begin
    id 16
    name RightShoulderDummy
    direction -0.988871 0.146793 -0.0241962
    length 3.5792
    axis -0.001389 0.000121451 1.30017e-006 xyz
  end
  begin
    id 17
    name RightShoulder
    direction -0.993832 0.108933 0.0207785
    length 4.16823
    axis 0.215806 0.000203643 -0.0068026 xyz
    dof rx ry rz
  end
  begin
    id 18
    name RightArm
    direction -1 3.90912e-006 8.31284e-007
    length 9.91437
    axis -23.2009 -0.134239 -0.964101 xyz
    dof rx ry rz
  end
  begin
    id 19
    name RightForeArm
    direction -1 3.90882e-006 8.31502e-007
    length 9.08575
    axis -9.92322 0.0658061 0.178867 xyz
    dof rx ry rz
  end
  begin
    id 20
    name RightHand
    direction -0.992843 -0.0414603 0.112003
    length 5.28593
    axis -0.00960638 0.00330671 -0.185228 xyz
    dof rx ry rz
  end
  begin
    id 21
    name LeftUpLegDummy
    direction 1 -2.30186e-007 -8.31532e-007
    length 4.46685
    axis 0 0 0 xyz
  end
  begin
    id 22
    name LeftUpLeg
    direction -2.30187e-007 -1 6.00931e-010
    length 16.4045
    axis -3.48766 0.00143442 -0.000524262 xyz
    dof rx ry rz
  end
  begin
    id 23
    name LeftLeg
    direction -2.30187e-007 -1 1.6669e-009
    length 17.5097
    axis 3.68178 -0.00654042 -0.000285133 xyz
    dof rx ry rz
  end
  begin
    id 24
    name LeftFoot
    direction 8.31532e-007 -4.54478e-011 1
    length 6.49508
    axis 1.87233e-006 4.66016e-005 -8.6538e-006 xyz
    dof rx ry rz
  end
  begin
    id 25
    name LeftToes
    direction 0.00818058 -0.00485161 0.999955
    length 3.85048
    axis 1.06247e-005 4.65869e-005 -8.65513e-006 xyz
    dof rx ry rz
  end
:hierarchy
  begin
    root RightUpLegDummy SpineDummy LeftUpLegDummy
    RightUpLegDummy RightUpLeg
    RightUpLeg RightLeg
    RightLeg RightFoot
    RightFoot RightToes
    SpineDummy Spine
    Spine Spine1
    Spine1 HEadDummy LeftShoulder1Dummy RightShoulderDummy
    HEadDummy HEad
    LeftShoulder1Dummy LeftShoulder1
    LeftShoulder1 LeftArm
    LeftArm LeftForeArm
    LeftForeArm LeftHand
    RightShoulderDummy RightShoulder
    RightShoulder RightArm
    RightArm RightForeArm
    RightForeArm RightHand
    LeftUpLegDummy LeftUpLeg
    LeftUpLeg LeftLeg
    LeftLeg LeftFoot
    LeftFoot LeftToes
  end

:SAMPLES-PER-SECOND 30
:FULLY-SPECIFIED
:DEGREES
1
root  49.5133 27.4957 40.7352 -167.605 -31.7527 179.272
RightUpLeg  -46.9787 -9.20297 -4.21977
RightLeg  73.0575 -1.46485 -4.0942
RightFoot  -26.2935 0.586092 2.88655
RightToes  -29.7962 -0.136613 -0.244451
Spine  15.9178 1.91671 6.19362
Spine1  26.9744 6.43763 6.99064
HEad  12.8586 -0.431351 -2.29611
LeftShoulder1  0 -2.42657e-020 -4.95415e-022
LeftArm  -5.55509 -19.9913 -103.836
LeftForeArm  32.2848 -28.3551 -5.45056
LeftHand  -0.27727 -8.26403 3.46956
RightShoulder  0 2.42657e-020 1.07489e-018
RightArm  -62.641 37.1267 65.9911
RightForeArm  50.3563 2.3696 0.400565
RightHand  -2.05032 16.1317 -14.029
LeftUpLeg  -61.1736 1.65226 14.5585
LeftLeg  54.4853 -13.2395 -15.6952
LeftFoot  4.68803 0.100309 -2.45017
LeftToes  -42.4005 3.33339e-006 -4.73431e-007
2
root  49.902 27.5518 40.6411 -167.739 -35.0454 179.698
RightUpLeg  -46.4636 -12.642 -2.59983
RightLeg  72.7176 -1.43107 -3.93277
RightFoot  -26.715 0.562518 2.7463
RightToes  -29.1043 -0.136613 -0.244451
Spine  15.6989 1.16943 6.33629
Spine1  26.5543 4.91288 7.2512
HEad  12.2561 -1.8196 0.0465843
LeftShoulder1  0 -2.42657e-020 -4.95415e-022
LeftArm  -6.0744 -19.8095 -103.203
LeftForeArm  30.8902 -29.5894 -5.73763
LeftHand  -0.392195 -7.49454 5.61792
RightShoulder  0 2.42657e-020 1.07489e-018
RightArm  -69.6577 35.059 66.0426
RightForeArm  46.0703 6.29162 1.09884
RightHand  -1.25247 16.828 -8.08541
LeftUpLeg  -61.7294 0.92226 14.8739
LeftLeg  53.0391 -14.5054 -16.2744
LeftFoot  4.73268 0.110715 -2.67873
LeftToes  -43.0895 3.33339e-006 -4.73431e-007
3
root  50.2438 27.8368 40.435 -168.497 -37.6956 -179.044
RightUpLeg  -45.0763 -15.3437 -0.424326
RightLeg  70.8156 -1.49805 -3.7246
RightFoot  -26.4529 0.501658 2.51178
RightToes  -28.1556 -0.136613 -0.244451
Spine  15.3517 0.498021 6.41929
Spine1  26.1207 3.35353 7.58524
HEad  11.209 -2.41449 1.76215
LeftShoulder1  0 -2.42657e-020 -4.95415e-022
LeftArm  -6.14965 -19.2529 -102.086
LeftForeArm  28.683 -30.9429 -6.06103
LeftHand  -0.464238 -7.09077 7.11918
RightShoulder  0 2.42657e-020 1.07489e-018
RightArm  -57.7721 30.5826 67.5052
RightForeArm  35.7552 14.4924 2.60323
RightHand  -0.982018 23.7907 -4.29053
LeftUpLeg  -61.2141 1.13111 15.4654
LeftLeg  50.8807 -15.7219 -16.317
LeftFoot  4.02994 0.0891459 -2.53342
LeftToes  -42.4935 3.33339e-006 -4.73431e-007
4
root  50.4667 28.3058 40.2211 -169.351 -39.7563 -177.635
RightUpLeg  -43.1437 -17.6986 1.52588
RightLeg  67.6315 -1.52216 -3.25311
RightFoot  -25.3462 0.392895 2.12472
RightToes  -28.7826 -0.136613 -0.244451
Spine  14.6693 -0.126249 6.07782
Spine1  25.16 1.66803 7.61948
HEad  10.0539 -2.43246 3.03279
LeftShoulder1  0 -2.42657e-020 -4.95415e-022
LeftArm  -5.22517 -17.5753 -100.159
LeftForeArm  25.5573 -33.0662 -6.58728
LeftHand  -0.493178 -6.17247 8.76753
RightShoulder  0 2.42657e-020 1.07489e-018
RightArm  -40.7511 23.6075 67.8742
RightForeArm  20.9633 24.4472 4.59343
RightHand  -0.433143 21.4337 -1.91891
LeftUpLeg  -59.8769 1.3472 16.1555
LeftLeg  47.6293 -15.2297 -14.2157
LeftFoot  2.6851 0.0435487 -1.85803
LeftToes  -40.8766 3.33339e-006 -4.73431e-007
5
root  50.5824 28.8724 40.0053 -170.179 -41.0561 -176.361
RightUpLeg  -40.826 -19.287 3.04546
RightLeg  63.6871 -1.55139 -2.79554
RightFoot  -23.8598 0.290785 1.75385
RightToes  -29.1934 -0.136613 -0.244451
Spine  13.7728 -0.684267 5.21254
Spine1  23.8182 -0.0398158 7.17222
HEad  9.13597 -1.8153 4.38402
LeftShoulder1  0 -2.42657e-020 -4.95415e-022
LeftArm  -3.34813 -14.9159 -97.0169
LeftForeArm  23.9829 -36.2673 -7.43128
LeftHand  -0.548 -5.99363 10.0803
RightShoulder  0 2.42657e-020 1.07489e-018
RightArm  -29.6943 16.5675 68.7373
RightForeArm  13.3333 34.9089 7.06569
RightHand  -0.274391 20.4752 -1.14954
LeftUpLeg  -57.9048 1.78218 16.6933
LeftLeg  43.8761 -12.656 -10.4933
LeftFoot  1.14114 0.0107041 -1.07484
LeftToes  -37.5712 3.33339e-006 -4.73431e-007
6
root  50.5965 29.4131 39.7639 -170.995 -41.6577 -175.222
RightUpLeg  -38.3806 -19.9167 4.17273
RightLeg  59.7453 -1.71424 -2.63111
RightFoot  -22.3017 0.232343 1.55629
RightToes  -29.3059 -0.136613 -0.244451
Spine  12.9865 -1.16091 4.16096
Spine1  22.7991 -1.40297 6.05633
HEad  8.21479 -0.132138 5.46102
LeftShoulder1  0 -2.42657e-020 -4.95415e-022
LeftArm  -3.91782 -11.897 -94.0163
LeftForeArm  25.1345 -40.3087 -8.60537
LeftHand  -0.616336 -6.23252 10.9264
RightShoulder  0 2.42657e-020 1.07489e-018
RightArm  -22.3136 12.0488 70.4045
RightForeArm  13.14 43.4921 9.63783
RightHand  -0.776072 21.5731 -3.70291
LeftUpLeg  -55.7412 2.7563 16.9665
LeftLeg  40.6772 -9.28787 -6.93847
LeftFoot  -0.231326 -0.00111322 -0.551448
LeftToes  -33.4625 3.33339e-006 -4.73431e-007
7
root  50.5145 29.8522 39.5398 -171.525 -41.5551 -174.515
RightUpLeg  -36.1287 -19.0361 4.6658
RightLeg  56.3534 -2.34664 -3.14205
RightFoot  -21.023 0.243392 1.68931
RightToes  -29.0111 -0.136613 -0.244451
Spine  12.332 -1.39875 3.16829
Spine1  21.9709 -2.28928 5.00728
HEad  6.94834 1.12066 6.10102
LeftShoulder1  0 -2.42657e-020 -4.95415e-022
LeftArm  -4.96771 -9.83763 -91.9848
LeftForeArm  22.3248 -44.1307 -9.85808
LeftHand  -0.492627 -5.05242 10.7755
RightShoulder  0 2.42657e-020 1.07489e-018
RightArm  -18.334 8.52889 72.6256
RightForeArm  16.5785 53.276 13.7083
RightHand  -1.53818 22.0657 -7.50927
LeftUpLeg  -53.6794 3.98461 16.9811
LeftLeg  38.2356 -6.71833 -4.6111
LeftFoot  -0.655882 -0.00219705 -0.383855
LeftToes  -30.9347 3.33339e-006 -4.73431e-007
8
root  50.3219 30.0694 39.3453 -171.867 -41.1145 -174.216
RightUpLeg  -34.5364 -17.7558 4.59481
RightLeg  54.5696 -2.97828 -3.71732
RightFoot  -20.3782 0.272854 1.89564
RightToes  -28.6307 -0.136613 -0.244451
Spine  11.8173 -1.21093 2.50842
Spine1  21.102 -2.27753 4.29177
HEad  5.89124 1.22226 6.09465
LeftShoulder1  0 -2.42657e-020 -4.95415e-022
LeftArm  -4.09576 -9.58363 -91.0021
LeftForeArm  19.0824 -46.761 -10.8208
LeftHand  -0.356156 -4.36522 8.96859
RightShoulder  0 2.42657e-020 1.07489e-018
RightArm  -15.9204 5.27132 74.1353
RightForeArm  25.7058 64.2193 21.5277
RightHand  -2.25701 21.3903 -11.5423
LeftUpLeg  -52.4141 4.89786 16.8947
LeftLeg  37.502 -5.67932 -3.79797
LeftFoot  -0.608587 -0.00100762 -0.361042
LeftToes  -30.4173 3.33339e-006 -4.73431e-007
9
root  49.8947 30.1292 39.0557 -172.761 -42.9763 -173.431
RightUpLeg  -32.3768 -19.6882 4.63013
RightLeg  53.256 -3.05783 -3.63906
RightFoot  -20.5994 0.279863 1.91756
RightToes  -28.9286 -0.136613 -0.244451
Spine  11.6164 -1.61338 2.57387
Spine1  20.6454 -3.14779 4.32484
HEad  4.97821 1.49393 5.58663
LeftShoulder1  0 -2.42657e-020 -4.95415e-022
LeftArm  -2.23091 -10.7499 -90.6999
LeftForeArm  17.3786 -50.1453 -12.2144
LeftHand  -0.209342 -4.2991 5.21141
RightShoulder  0 2.42657e-020 1.07489e-018
RightArm  -13.1958 3.33522 74.1458
RightForeArm  34.4441 73.2271 36.1066
RightHand  -2.47449 18.5416 -14.7091
LeftUpLeg  -52.4786 3.28104 17.255
LeftLeg  38.2793 -6.59633 -4.53555
LeftFoot  0.0792985 0.00385712 -0.440765
LeftToes  -31.9639 3.33339e-006 -4.73431e-007
10
root  49.4398 30.1053 38.8699 -173.103 -43.7994 -173.452
RightUpLeg  -30.9264 -20.4337 3.85644
RightLeg  52.9666 -3.21426 -3.78231
RightFoot  -20.8041 0.302056 2.02295
RightToes  -29.7133 -0.141952 -0.249968
Spine  11.4863 -1.71332 2.31988
Spine1  20.3763 -3.22656 3.69436
HEad  3.30471 2.34546 5.42164
LeftShoulder1  0 -2.42657e-020 -4.95415e-022
LeftArm  0.972538 -12.4389 -89.6645
LeftForeArm  16.5136 -55.8031 -15.0782
LeftHand  -0.128633 -4.37418 3.00202
RightShoulder  0 2.42657e-020 1.07489e-018
RightArm  -11.3742 3.18678 74.3617
RightForeArm  56.2911 77.6738 54.5298
RightHand  -2.79825 19.2165 -16.055
LeftUpLeg  -52.4594 2.55341 16.7974
LeftLeg  39.3333 -8.18455 -5.83569
LeftFoot  1.79937 0.0202778 -0.726933
LeftToes  -32.5472 3.33339e-006 -4.73431e-007
11
root  48.905 30.07 38.6624 -173.493 -43.9169 -173.517
RightUpLeg  -29.2802 -20.2089 2.88081
RightLeg  52.6639 -3.55475 -4.13045
RightFoot  -21.028 0.345095 2.2369
RightToes  -30.3765 -0.146522 -0.254575
Spine  11.2905 -1.66006 1.9773
Spine1  20.0041 -2.88188 2.81758
HEad  1.78207 3.74629 5.49528
LeftShoulder1  0 -2.42657e-020 -4.95415e-022
LeftArm  4.9088 -13.5384 -88.1818
LeftForeArm  20.2217 -63.523 -20.8219
LeftHand  0.0291023 0.76456 3.95382
RightShoulder  0 2.42657e-020 1.07489e-018
RightArm  -6.0852 4.43079 73.1336
RightForeArm  82.1523 79.3649 71.6203
RightHand  -3.47433 18.4616 -20.7787
LeftUpLeg  -52.0927 1.9597 16.5404
LeftLeg  40.6271 -8.75547 -6.53596
LeftFoot  3.36606 0.0356762 -1.00551
LeftToes  -33.9325 3.33339e-006 -4.73431e-007
12
root  48.2581 30.0306 38.4456 -173.757 -43.119 -173.67
RightUpLeg  -27.599 -19.1949 1.66746
RightLeg  52.2596 -3.78587 -4.33148
RightFoot  -21.1407 0.375214 2.38813
RightToes  -31.3409 -0.153263 -0.261177
Spine  11.1597 -1.39377 1.53639
Spine1  19.6295 -2.28018 2.12305
HEad  0.764239 4.78717 5.61571
LeftShoulder1  0 -2.42657e-020 -4.95415e-022
LeftArm  1.78932 -11.4552 -87.0279
LeftForeArm  30.4495 -71.7632 -32.5792
LeftHand  -0.2219 -3.5147 6.8665
RightShoulder  0 2.42657e-020 1.07489e-018
RightArm  -1.711 6.12653 71.9025
RightForeArm  105.797 79.8479 94.8225
RightHand  -4.14529 16.3072 -27.9924
LeftUpLeg  -51.7013 1.78531 16.2306
LeftLeg  42.7835 -8.43991 -6.80818
LeftFoot  3.66799 0.0344399 -1.01526
LeftToes  -34.2055 3.33339e-006 -4.73431e-007
13
root  47.5053 30.0365 38.2376 -173.742 -41.7966 -174.104
RightUpLeg  -25.7711 -18.1698 0.0686726
RightLeg  51.3734 -3.69413 -4.09789
RightFoot  -21.0144 0.358069 2.30806
RightToes  -32.7451 -0.163274 -0.270585
Spine  10.8813 -0.839143 1.12125
Spine1  19.0457 -1.17455 1.55743
HEad  -0.292268 5.22669 5.35632
LeftShoulder1  0 -2.42657e-020 -4.95415e-022
LeftArm  2.28031 -10.749 -84.1672
LeftForeArm  61.0759 -77.5488 -53.6714
LeftHand  -0.490246 -3.98375 13.6794
RightShoulder  0 2.42657e-020 1.07489e-018
RightArm  0.74005 7.30977 70.5093
RightForeArm  132.1 79.1864 110.814
RightHand  -4.93047 14.489 -37.0663
LeftUpLeg  -51.1327 1.68422 15.5679
LeftLeg  45.0864 -7.61925 -6.67453
LeftFoot  3.19635 0.0236515 -0.8477
LeftToes  -32.9326 3.33339e-006 -4.73431e-007
14
root  46.6714 30.0569 38.0245 -173.626 -40.2413 -174.676
RightUpLeg  -23.8179 -17.0182 -1.78432
RightLeg  50.185 -3.50199 -3.7287
RightFoot  -20.7516 0.324615 2.1504
RightToes  -34.4036 -0.17539 -0.281377
Spine  10.4424 -0.0805682 0.751747
Spine1  18.1784 0.321725 1.12161
HEad  -0.399192 5.05827 5.26884
LeftShoulder1  0 -2.42657e-020 -4.95415e-022
LeftArm  4.38789 -9.89737 -80.5571
LeftForeArm  103.464 -79.8677 -93.8073
LeftHand  -0.946514 -5.28023 19.9675
RightShoulder  0 2.42657e-020 1.07489e-018
RightArm  3.23829 7.483 67.5107
RightForeArm  160.962 77.246 127.915
RightHand  -6.00166 13.7827 -46.5466
LeftUpLeg  -50.3557 1.54853 14.727
LeftLeg  47.3162 -6.6566 -6.31348
LeftFoot  2.67263 0.0156895 -0.672584
LeftToes  -30.8055 3.33339e-006 -4.73431e-007
